<mxfile host="app.diagrams.net" modified="2024-04-22T03:11:41.948Z" agent="Mozilla/5.0 (Macintosh; Intel Mac OS X 10_15_7) AppleWebKit/537.36 (KHTML, like Gecko) Chrome/124.0.0.0 Safari/537.36" etag="yxdMQNWqr7ZoZF2jZs84" version="24.2.5" type="github">
  <diagram name="第 1 页" id="T4g3KaJ-ecK2wyhDyhMM">
    <mxGraphModel dx="1220" dy="679" grid="0" gridSize="10" guides="1" tooltips="1" connect="1" arrows="1" fold="1" page="1" pageScale="1" pageWidth="827" pageHeight="1169" math="0" shadow="0">
      <root>
        <mxCell id="0" />
        <mxCell id="1" parent="0" />
        <mxCell id="MVkR0pIZN539cBZ9aeX5-1" value="Groundtruth Text" style="rounded=1;whiteSpace=wrap;html=1;fillColor=#dae8fc;strokeColor=#6c8ebf;" vertex="1" parent="1">
          <mxGeometry x="200" y="160" width="120" height="60" as="geometry" />
        </mxCell>
        <mxCell id="MVkR0pIZN539cBZ9aeX5-15" style="edgeStyle=orthogonalEdgeStyle;rounded=0;orthogonalLoop=1;jettySize=auto;html=1;exitX=1;exitY=0.5;exitDx=0;exitDy=0;entryX=0;entryY=0.5;entryDx=0;entryDy=0;" edge="1" parent="1" source="MVkR0pIZN539cBZ9aeX5-2" target="MVkR0pIZN539cBZ9aeX5-8">
          <mxGeometry relative="1" as="geometry" />
        </mxCell>
        <mxCell id="MVkR0pIZN539cBZ9aeX5-2" value="Audio Encoder" style="rounded=1;whiteSpace=wrap;html=1;fillColor=#fff2cc;strokeColor=#d6b656;" vertex="1" parent="1">
          <mxGeometry x="200" y="410" width="120" height="60" as="geometry" />
        </mxCell>
        <mxCell id="MVkR0pIZN539cBZ9aeX5-3" value="Hypothesis Text" style="rounded=1;whiteSpace=wrap;html=1;fillColor=#dae8fc;strokeColor=#6c8ebf;" vertex="1" parent="1">
          <mxGeometry x="200" y="290" width="120" height="60" as="geometry" />
        </mxCell>
        <mxCell id="MVkR0pIZN539cBZ9aeX5-4" value="LLM" style="rounded=1;whiteSpace=wrap;html=1;fillColor=#f8cecc;strokeColor=#b85450;" vertex="1" parent="1">
          <mxGeometry x="530" y="200" width="70" height="270" as="geometry" />
        </mxCell>
        <mxCell id="MVkR0pIZN539cBZ9aeX5-11" style="edgeStyle=orthogonalEdgeStyle;rounded=0;orthogonalLoop=1;jettySize=auto;html=1;exitX=0.5;exitY=0;exitDx=0;exitDy=0;entryX=0;entryY=0.5;entryDx=0;entryDy=0;" edge="1" parent="1" source="MVkR0pIZN539cBZ9aeX5-5" target="MVkR0pIZN539cBZ9aeX5-1">
          <mxGeometry relative="1" as="geometry" />
        </mxCell>
        <mxCell id="MVkR0pIZN539cBZ9aeX5-31" style="edgeStyle=orthogonalEdgeStyle;rounded=0;orthogonalLoop=1;jettySize=auto;html=1;entryX=0;entryY=0.5;entryDx=0;entryDy=0;" edge="1" parent="1" source="MVkR0pIZN539cBZ9aeX5-5" target="MVkR0pIZN539cBZ9aeX5-2">
          <mxGeometry relative="1" as="geometry">
            <Array as="points">
              <mxPoint x="85" y="440" />
            </Array>
          </mxGeometry>
        </mxCell>
        <mxCell id="MVkR0pIZN539cBZ9aeX5-5" value="ASR Dataset&lt;div&gt;(paired data)&lt;/div&gt;" style="rounded=0;whiteSpace=wrap;html=1;" vertex="1" parent="1">
          <mxGeometry x="20" y="290" width="130" height="60" as="geometry" />
        </mxCell>
        <mxCell id="MVkR0pIZN539cBZ9aeX5-24" style="edgeStyle=orthogonalEdgeStyle;rounded=0;orthogonalLoop=1;jettySize=auto;html=1;entryX=0.5;entryY=1;entryDx=0;entryDy=0;" edge="1" parent="1" source="MVkR0pIZN539cBZ9aeX5-6" target="MVkR0pIZN539cBZ9aeX5-21">
          <mxGeometry relative="1" as="geometry" />
        </mxCell>
        <mxCell id="MVkR0pIZN539cBZ9aeX5-6" value="Text Embe-dding" style="rounded=0;whiteSpace=wrap;html=1;fillColor=#ffe6cc;strokeColor=#d79b00;" vertex="1" parent="1">
          <mxGeometry x="360" y="275" width="40" height="90" as="geometry" />
        </mxCell>
        <mxCell id="MVkR0pIZN539cBZ9aeX5-23" style="edgeStyle=orthogonalEdgeStyle;rounded=0;orthogonalLoop=1;jettySize=auto;html=1;entryX=0.5;entryY=0;entryDx=0;entryDy=0;" edge="1" parent="1" source="MVkR0pIZN539cBZ9aeX5-7" target="MVkR0pIZN539cBZ9aeX5-21">
          <mxGeometry relative="1" as="geometry" />
        </mxCell>
        <mxCell id="MVkR0pIZN539cBZ9aeX5-7" value="Text Embe-dding" style="rounded=0;whiteSpace=wrap;html=1;fillColor=#ffe6cc;strokeColor=#d79b00;" vertex="1" parent="1">
          <mxGeometry x="360" y="120" width="40" height="110" as="geometry" />
        </mxCell>
        <mxCell id="MVkR0pIZN539cBZ9aeX5-8" value="Audio Embe-dding" style="rounded=0;whiteSpace=wrap;html=1;fillColor=#e1d5e7;strokeColor=#9673a6;" vertex="1" parent="1">
          <mxGeometry x="360" y="395" width="40" height="90" as="geometry" />
        </mxCell>
        <mxCell id="MVkR0pIZN539cBZ9aeX5-9" value="" style="endArrow=classic;html=1;rounded=0;exitX=0.5;exitY=0;exitDx=0;exitDy=0;entryX=0.5;entryY=1;entryDx=0;entryDy=0;" edge="1" parent="1" source="MVkR0pIZN539cBZ9aeX5-2" target="MVkR0pIZN539cBZ9aeX5-3">
          <mxGeometry width="50" height="50" relative="1" as="geometry">
            <mxPoint x="390" y="380" as="sourcePoint" />
            <mxPoint x="270" y="400" as="targetPoint" />
          </mxGeometry>
        </mxCell>
        <mxCell id="MVkR0pIZN539cBZ9aeX5-16" value="CTC" style="edgeLabel;html=1;align=center;verticalAlign=middle;resizable=0;points=[];" vertex="1" connectable="0" parent="MVkR0pIZN539cBZ9aeX5-9">
          <mxGeometry x="-0.0857" y="1" relative="1" as="geometry">
            <mxPoint as="offset" />
          </mxGeometry>
        </mxCell>
        <mxCell id="MVkR0pIZN539cBZ9aeX5-10" value="" style="endArrow=classic;html=1;rounded=0;entryX=0;entryY=0.5;entryDx=0;entryDy=0;" edge="1" parent="1" target="MVkR0pIZN539cBZ9aeX5-6">
          <mxGeometry width="50" height="50" relative="1" as="geometry">
            <mxPoint x="320" y="320" as="sourcePoint" />
            <mxPoint x="370" y="400" as="targetPoint" />
          </mxGeometry>
        </mxCell>
        <mxCell id="MVkR0pIZN539cBZ9aeX5-14" style="edgeStyle=orthogonalEdgeStyle;rounded=0;orthogonalLoop=1;jettySize=auto;html=1;entryX=-0.025;entryY=0.636;entryDx=0;entryDy=0;entryPerimeter=0;" edge="1" parent="1" source="MVkR0pIZN539cBZ9aeX5-1" target="MVkR0pIZN539cBZ9aeX5-7">
          <mxGeometry relative="1" as="geometry" />
        </mxCell>
        <mxCell id="MVkR0pIZN539cBZ9aeX5-19" value="Repsonse" style="rounded=1;whiteSpace=wrap;html=1;labelBorderColor=none;dashed=1;" vertex="1" parent="1">
          <mxGeometry x="640" y="230" width="100" height="40" as="geometry" />
        </mxCell>
        <mxCell id="MVkR0pIZN539cBZ9aeX5-20" value="Repsonse" style="rounded=1;whiteSpace=wrap;html=1;dashed=1;" vertex="1" parent="1">
          <mxGeometry x="640" y="420" width="100" height="37.5" as="geometry" />
        </mxCell>
        <mxCell id="MVkR0pIZN539cBZ9aeX5-21" value="" style="shape=orEllipse;perimeter=ellipsePerimeter;whiteSpace=wrap;html=1;backgroundOutline=1;" vertex="1" parent="1">
          <mxGeometry x="430" y="240" width="20" height="20" as="geometry" />
        </mxCell>
        <mxCell id="MVkR0pIZN539cBZ9aeX5-26" style="edgeStyle=orthogonalEdgeStyle;rounded=0;orthogonalLoop=1;jettySize=auto;html=1;" edge="1" parent="1" source="MVkR0pIZN539cBZ9aeX5-21">
          <mxGeometry relative="1" as="geometry">
            <mxPoint x="530" y="250" as="targetPoint" />
            <Array as="points">
              <mxPoint x="530" y="250" />
            </Array>
          </mxGeometry>
        </mxCell>
        <mxCell id="MVkR0pIZN539cBZ9aeX5-28" style="edgeStyle=orthogonalEdgeStyle;rounded=0;orthogonalLoop=1;jettySize=auto;html=1;entryX=-0.043;entryY=0.889;entryDx=0;entryDy=0;entryPerimeter=0;" edge="1" parent="1" source="MVkR0pIZN539cBZ9aeX5-8" target="MVkR0pIZN539cBZ9aeX5-4">
          <mxGeometry relative="1" as="geometry" />
        </mxCell>
        <mxCell id="MVkR0pIZN539cBZ9aeX5-30" value="" style="endArrow=none;html=1;rounded=0;entryX=0.5;entryY=1;entryDx=0;entryDy=0;exitX=0.5;exitY=0;exitDx=0;exitDy=0;" edge="1" parent="1" source="MVkR0pIZN539cBZ9aeX5-20" target="MVkR0pIZN539cBZ9aeX5-19">
          <mxGeometry width="50" height="50" relative="1" as="geometry">
            <mxPoint x="690" y="410" as="sourcePoint" />
            <mxPoint x="690" y="280" as="targetPoint" />
          </mxGeometry>
        </mxCell>
      </root>
    </mxGraphModel>
  </diagram>
</mxfile>
